<?xml version="1.0" encoding="UTF-8" standalone="no"?>
<svg
   xmlns:dc="http://purl.org/dc/elements/1.1/"
   xmlns:cc="http://creativecommons.org/ns#"
   xmlns:rdf="http://www.w3.org/1999/02/22-rdf-syntax-ns#"
   xmlns:svg="http://www.w3.org/2000/svg"
   xmlns="http://www.w3.org/2000/svg"
   xmlns:sodipodi="http://sodipodi.sourceforge.net/DTD/sodipodi-0.dtd"
   xmlns:inkscape="http://www.inkscape.org/namespaces/inkscape"
   viewBox="0 0 48 48"
   version="1.1"
   id="svg6"
   sodipodi:docname="ic_launcher_round.svg"
   inkscape:version="0.92.2 2405546, 2018-03-11">
  <metadata
     id="metadata12">
    <rdf:RDF>
      <cc:Work
         rdf:about="">
        <dc:format>image/svg+xml</dc:format>
        <dc:type
           rdf:resource="http://purl.org/dc/dcmitype/StillImage" />
      </cc:Work>
    </rdf:RDF>
  </metadata>
  <defs
     id="defs10" />
  <sodipodi:namedview
     pagecolor="#ffffff"
     bordercolor="#666666"
     borderopacity="1"
     objecttolerance="10"
     gridtolerance="10"
     guidetolerance="10"
     inkscape:pageopacity="0"
     inkscape:pageshadow="2"
     inkscape:window-width="1600"
     inkscape:window-height="837"
     id="namedview8"
     showgrid="false"
     inkscape:zoom="9.8333333"
     inkscape:cx="33.069508"
     inkscape:cy="29.103628"
     inkscape:window-x="0"
     inkscape:window-y="0"
     inkscape:window-maximized="1"
     inkscape:current-layer="svg6" />
  <!-- Screen and border. -->
  <path
     fill="#000"
     stroke="#BFCBCD"
     stroke-width="2"
     d="M 24, 24              m -21, 0              a 21,21 0 1,0 42,0              a 21,21 0 1,0 -42,0"
     id="path2" />
  <g
     id="g867"
     transform="matrix(0.87493722,0,0,0.87353969,3.1104885,3.1154348)"
     style="fill:#ffffff">
    <g
       style="fill:#ffffff;fill-opacity:1"
       transform="matrix(0.08918279,0,0,-0.08918279,-26.672158,68.784159)"
       id="g864">
      <g
         id="g20"
         transform="translate(686.7844,397.9583)"
         style="fill:#ffffff;fill-opacity:1">
        <path
           d="m 0,0 c -3.74,6.413 -3.73,19.372 0.023,26.161 1.64,2.969 6.622,9.559 28.367,9.559 4.468,0 7.739,-0.229 10.148,-0.554 5.278,-0.71 9.297,-2.509 9.297,-7.425 0,-6.49 -9.565,-6.55 -9.565,-6.55 H 18 C 9.392,21.191 8.734,9.287 8.734,9.287 h 9.17 20.366 c 10.375,0 21.125,4.649 21.125,18.258 0,9.047 -5.207,15.135 -13.71,17.468 -8.498,2.332 -11.809,2.206 -23.391,1.998 C 13.02,46.845 7.679,44.81 4.305,43.752 -1.609,41.896 -6.907,38.432 -10.48,31.966 -16.297,21.438 -16.244,4.03 -10.365,-6.047 -4.08,-16.821 6.696,-22.587 19.723,-22.597 h 39.672 l 10e-4,11.943 H 19.682 C 8.246,-10.688 2.571,-4.408 0,0"
           style="fill:#ffffff;fill-opacity:1;fill-rule:nonzero;stroke:none"
           id="path22"
           inkscape:connector-curvature="0" />
      </g>
      <g
         id="g24"
         transform="translate(441.9298,442.9648)"
         style="fill:#ffffff;fill-opacity:1">
        <path
           d="m 0,0 c -10.527,5.817 -27.936,5.764 -38.013,-0.115 -14.384,-8.391 -19.841,-24.786 -14.594,-43.858 2.693,-9.79 9.965,-17.002 21.03,-20.855 7.818,-2.723 15.012,-2.801 15.31,-2.803 l -0.015,12 c -0.207,10e-4 -20.756,0.305 -24.755,14.842 -5.16,18.758 3.468,27.041 9.071,30.309 6.413,3.74 19.372,3.73 26.161,-0.023 7.212,-3.985 7.733,-12.297 7.733,-25.513 v -24.358 c 0,-8.608 12,-9.171 12,-9.171 v 9.171 24.358 c 0,12.618 0,28.319 -13.928,36.016"
           style="fill:#ffffff;fill-opacity:1;fill-rule:nonzero;stroke:none"
           id="path26"
           inkscape:connector-curvature="0" />
      </g>
      <g
         id="g28"
         transform="translate(597.6101,375.3665)"
         style="fill:#ffffff;fill-opacity:1">
        <path
           d="m 0,0 v 37.405 c 0.011,13.027 5.776,23.803 16.55,30.088 10.078,5.878 27.486,5.932 38.013,0.115 C 68.491,59.911 68.491,44.209 68.491,31.592 V 7.273 -1.898 c 0,0 -12,0.563 -12,9.171 v 24.319 c 0,13.216 -0.521,21.528 -7.733,25.513 C 41.969,60.858 29.01,60.868 22.597,57.128 18.189,54.557 11.909,48.882 11.943,37.446 V -0.001 Z"
           style="fill:#ffffff;fill-opacity:1;fill-rule:nonzero;stroke:none"
           id="path30"
           inkscape:connector-curvature="0" />
      </g>
      <g
         id="g32"
         transform="translate(579.8309,375.3661)"
         style="fill:#ffffff;fill-opacity:1">
        <path
           d="m 0,0 v 47.562 9.171 c 0,0 11.904,-0.658 11.904,-9.267 V 0 Z"
           style="fill:#ffffff;fill-opacity:1;fill-rule:nonzero;stroke:none"
           id="path34"
           inkscape:connector-curvature="0" />
      </g>
      <g
         id="g36"
         transform="translate(591.7351,443.8518)"
         style="fill:#ffffff;fill-opacity:1">
        <path
           d="m 0,0 v -2.028 -9.171 c 0,0 -11.904,0.658 -11.904,9.267 V 0 Z"
           style="fill:#ffffff;fill-opacity:1;fill-rule:nonzero;stroke:none"
           id="path38"
           inkscape:connector-curvature="0" />
      </g>
      <g
         id="g40"
         transform="translate(519.3928,442.6805)"
         style="fill:#ffffff;fill-opacity:1">
        <path
           d="m 0,0 c 10.527,5.817 27.936,5.764 38.013,-0.115 14.384,-8.391 19.841,-24.786 14.594,-43.858 -2.693,-9.79 -9.965,-17.002 -21.03,-20.855 -7.818,-2.723 -15.007,-2.447 -15.305,-2.449 l 0.01,11.899 c 0.207,10e-4 20.756,0.052 24.755,14.589 5.16,18.758 -3.468,27.041 -9.071,30.309 -6.413,3.74 -19.372,3.73 -26.161,-0.023 -7.212,-3.985 -7.733,-12.297 -7.733,-25.513 v -12.612 c 0,-8.608 -12,-9.17 -12,-9.17 v 9.17 12.612 c 0,12.618 0,28.319 13.928,36.016"
           style="fill:#ffffff;fill-opacity:1;fill-rule:nonzero;stroke:none"
           id="path42"
           inkscape:connector-curvature="0" />
      </g>
      <g
         id="g44"
         transform="translate(517.3693,344.6278)"
         style="fill:#ffffff;fill-opacity:1">
        <path
           d="m 0,0 v 30.505 9.17 c 0,0 -11.904,-0.658 -11.904,-9.266 V 0 Z"
           style="fill:#ffffff;fill-opacity:1;fill-rule:nonzero;stroke:none"
           id="path46"
           inkscape:connector-curvature="0" />
      </g>
      <g
         id="g48"
         transform="translate(473.349,473.7803)"
         style="fill:#ffffff;fill-opacity:1">
        <path
           d="m 0,0 v -32.359 -9.17 c 0,0 -11.904,0.658 -11.904,9.266 V 0 Z"
           style="fill:#ffffff;fill-opacity:1;fill-rule:nonzero;stroke:none"
           id="path50"
           inkscape:connector-curvature="0" />
      </g>
      <g
         id="g52"
         transform="translate(474.9603,402.1447)"
         style="fill:#ffffff;fill-opacity:1">
        <path
           d="m 0,0 c -1.039,3.777 -1.519,7.129 -1.577,10.101 l -0.034,10.255 c 0,8.608 -11.913,9.171 -11.913,9.171 V 20.356 10.163 c 0.037,-4.24 0.68,-8.714 1.954,-13.347 2.693,-9.79 9.966,-17.002 21.03,-20.855 7.818,-2.723 14.992,-2.743 15.289,-2.745 l 0.006,11.942 C 24.548,-14.841 3.999,-14.537 0,0"
           style="fill:#ffffff;fill-opacity:1;fill-rule:nonzero;stroke:none"
           id="path54"
           inkscape:connector-curvature="0" />
      </g>
    </g>
    <g
       style="fill:#ffffff;fill-opacity:0.99601596"
       id="g922"
       transform="matrix(0.29989962,0,0,-0.29989962,-62.405886,141.39292)">
      <path
         style="fill:#ffffff;fill-opacity:0.99601596;stroke-width:0.67364186"
         d="m 240.43689,394.42831 c -1.38602,0.51437 -3.32183,1.46058 -4.3018,2.10268 l -1.78176,1.16745 20.60108,20.60108 20.60108,20.60108 20.61907,-20.63717 20.61907,-20.63717 -1.72668,-1.13136 c -2.62412,-1.71938 -6.46875,-2.92687 -9.42384,-2.95975 -2.56694,-0.0286 -3.12134,0.43268 -16.34351,13.59767 l -13.68643,13.62725 -13.37562,-13.36309 c -12.81215,-12.80013 -13.50001,-13.37447 -16.32813,-13.63349 -1.62387,-0.14873 -4.08651,0.15044 -5.47253,0.66482 z"
         id="path913"
         inkscape:connector-curvature="0" />
      <path
         style="fill:#ffffff;fill-opacity:0.99601596;stroke-width:0.84205234"
         d="m 60.659597,98.640684 c -7.153876,-2.793064 -7.15496,-3.029308 -0.04633,-10.090496 l 6.310878,-6.268759 v 9.030988 c 0,10.117463 0.220066,9.860033 -6.264549,7.328267 z"
         id="path915"
         inkscape:connector-curvature="0"
         transform="matrix(0.8,0,0,-0.8,214.0454,473.7803)" />
      <path
         style="fill:#ffffff;fill-opacity:0.99601596;stroke-width:0.84205234"
         d="M 141.44578,99.424643 C 140.51952,98.893584 133.85997,92.606776 126.64679,85.45396 115.00721,73.911794 113.40461,72.602214 112.40034,73.812286 c -1.01003,1.217012 -1.74963,0.750111 -6.88636,-4.347253 l -5.754795,-5.7107 6.916755,-6.952871 6.91675,-6.952871 22.49962,22.358549 c 12.37479,12.297203 22.57493,22.616496 22.66697,22.931763 0.0921,0.315268 -1.59763,1.482434 -3.75483,2.593703 -4.46183,2.298484 -11.06391,3.122384 -13.55867,1.692037 z"
         id="path917"
         inkscape:connector-curvature="0"
         transform="matrix(0.8,0,0,-0.8,214.0454,473.7803)" />
    </g>
  </g>
  <!-- Block cursor. -->
</svg>
